<svg width="24" height="24" viewBox="0 0 24 24" fill="none" xmlns="http://www.w3.org/2000/svg">
<g clip-path="url(#clip0_26_4416)">
<path d="M3 8C3 5.79086 4.79086 4 7 4H17C19.2091 4 21 5.79086 21 8V14C21 16.2091 19.2091 18 17 18H14L12.0003 20L10 18H7C4.79086 18 3 16.2091 3 14V8Z" stroke="#354541" stroke-width="2" stroke-linejoin="round"/>
<path d="M7.42902 12.5142C8.12331 12.5142 8.68616 11.9514 8.68616 11.2571C8.68616 10.5628 8.12331 9.99994 7.42902 9.99994C6.73472 9.99994 6.17188 10.5628 6.17188 11.2571C6.17188 11.9514 6.73472 12.5142 7.42902 12.5142Z" fill="#354541"/>
<path d="M12.0003 12.5142C12.6946 12.5142 13.2574 11.9514 13.2574 11.2571C13.2574 10.5628 12.6946 9.99994 12.0003 9.99994C11.306 9.99994 10.7432 10.5628 10.7432 11.2571C10.7432 11.9514 11.306 12.5142 12.0003 12.5142Z" fill="#354541"/>
<path d="M16.5721 12.5142C17.2664 12.5142 17.8292 11.9514 17.8292 11.2571C17.8292 10.5628 17.2664 9.99994 16.5721 9.99994C15.8778 9.99994 15.3149 10.5628 15.3149 11.2571C15.3149 11.9514 15.8778 12.5142 16.5721 12.5142Z" fill="#354541"/>
</g>
<defs>
<clipPath id="clip0_26_4416">
<rect width="24" height="24" fill="white"/>
</clipPath>
</defs>
</svg>
