<svg width="1920" height="211" viewBox="0 0 1920 211" fill="none" xmlns="http://www.w3.org/2000/svg">
<g clip-path="url(#clip0_10_13)">
<g clip-path="url(#clip1_10_13)">
<g clip-path="url(#clip2_10_13)">
<mask id="mask0_10_13" style="mask-type:luminance" maskUnits="userSpaceOnUse" x="0" y="-32" width="1920" height="275">
<path d="M1920 -31.1667H0V242.167H1920V-31.1667Z" fill="white"/>
</mask>
<g mask="url(#mask0_10_13)">
<path d="M1920 -31.1667H0V242.167H1920V-31.1667Z" fill="white"/>
<path d="M1920 -80.5973H0V319.403H1920V-80.5973Z" fill="white"/>
<path d="M1340.37 136.833H16.9578C-8.6081 136.833 -29.3333 140.815 -29.3333 145.725V309.275C-29.3333 314.185 -8.6081 318.167 16.9578 318.167H1340.37C1365.95 318.167 1386.67 314.185 1386.67 309.275V145.725C1386.67 140.815 1365.95 136.833 1340.37 136.833Z" fill="#D2DCDC"/>
<mask id="mask1_10_13" style="mask-type:alpha" maskUnits="userSpaceOnUse" x="114" y="-518" width="842" height="838">
<path d="M535.285 319.296C767.584 319.296 955.9 131.895 955.9 -99.2756C955.9 -330.447 767.584 -517.847 535.285 -517.847C302.988 -517.847 114.672 -330.447 114.672 -99.2756C114.672 131.895 302.988 319.296 535.285 319.296Z" fill="#D2DCDC"/>
</mask>
<g mask="url(#mask1_10_13)">
<path d="M957.239 319.059L956.527 -519.151L113.346 -518.441L114.058 319.768L957.239 319.059Z" fill="#D2DCDC"/>
<path d="M235.152 0.637085L235.084 -79.0909C235.075 -90.0991 244.035 -99.0305 255.096 -99.0397L335.213 -99.1071C346.275 -99.1164 355.235 -108.048 355.225 -119.056L355.157 -198.784C355.148 -209.792 364.108 -218.724 375.171 -218.733L455.287 -218.8C466.349 -218.809 475.427 -227.792 475.417 -238.8L475.351 -318.528C475.341 -329.536 484.183 -338.416 495.244 -338.425L575.361 -338.493C586.423 -338.503 595.383 -347.433 595.373 -358.441V-438.184C595.364 -449.192 604.34 -458.043 615.403 -458.052H695.518C706.581 -458.061 715.557 -466.976 715.548 -477.984L715.378 -557.863C715.369 -568.871 706.395 -577.787 695.333 -577.777L134.515 -577.307C123.453 -577.297 114.493 -568.365 114.503 -557.357L114.976 0.738159C114.986 11.7463 123.961 20.6625 135.023 20.6532L215.14 20.5859C226.201 20.5765 235.161 11.6453 235.152 0.637085Z" fill="#FF92B7"/>
<path d="M420.116 -224.159H113.67V305.615H420.116V-224.159Z" fill="#00DA72"/>
<path d="M955.899 -452.492H775.636V81.2867H955.899V-452.492Z" fill="#FF92B7"/>
<path d="M799.708 19.1934C798.447 27.6515 797.129 36.3786 795.753 45.399C789.047 45.399 782.34 45.399 775.633 45.399C775.633 38.725 775.633 32.051 775.633 25.377C783.948 23.1783 791.96 21.1171 799.708 19.1934Z" fill="#FF5B17"/>
<path d="M827.976 -14.7195C826.143 -5.67295 824.217 3.82958 822.2 13.8341C814.941 15.4831 807.456 17.2695 799.708 19.1932C800.968 10.7351 802.171 2.54572 803.317 -5.39922C812.017 -8.74495 820.213 -11.8517 827.976 -14.7195Z" fill="#FF5B17"/>
<path d="M869.945 -29.0579C867.849 -18.3169 865.648 -6.79384 863.343 5.58949C856.837 6.68882 850.181 7.92549 843.336 9.29963C845.677 -2.01318 847.913 -12.627 850.041 -22.6055C857.012 -24.9953 863.623 -27.1461 869.945 -29.0579Z" fill="#FF5B17"/>
<path d="M806.584 -28.525C805.553 -21.0445 804.464 -13.344 803.319 -5.39902C794.619 -2.05329 785.415 1.53138 775.633 5.35498C775.633 -1.31902 775.633 -7.99302 775.633 -14.667C786.741 -19.5943 797.024 -24.2136 806.584 -28.525Z" fill="#FF5B17"/>
<path d="M843.336 9.2995C840.995 20.6124 838.547 32.6243 835.993 45.3987C829.287 45.3987 822.58 45.3987 815.873 45.3987C818.073 34.345 820.183 23.8386 822.2 13.834C829.459 12.1851 836.492 10.6736 843.336 9.2995Z" fill="#FF5B17"/>
<path d="M882.447 2.70387C880.465 15.9199 878.393 30.1216 876.232 45.3988C869.525 45.3988 862.819 45.3988 856.112 45.3988C858.628 31.2165 861.037 17.9728 863.343 5.58947C869.848 4.49014 876.204 3.5284 882.447 2.70387Z" fill="#FF5B17"/>
<path d="M904.997 -37.6608C903.687 -25.903 902.312 -13.1677 900.871 0.643112C894.817 1.19271 888.688 1.87978 882.445 2.70432C884.427 -10.5118 886.317 -22.7421 888.119 -34.0761C893.937 -35.51 899.539 -36.7048 904.997 -37.6608Z" fill="#FF5B17"/>
<path d="M918.844 -0.593567C918.088 13.574 917.297 28.8707 916.472 45.3994C909.765 45.3994 903.059 45.3994 896.352 45.3994C897.924 29.34 899.431 14.4539 900.871 0.6431C906.925 0.0934995 912.903 -0.318767 918.844 -0.593567Z" fill="#FF5B17"/>
<path d="M954.339 -0.594264C955.095 13.5733 955.885 28.8701 956.711 45.3987C950.004 45.3987 943.299 45.3987 936.592 45.3987V-1.00653C942.495 -1.00653 948.397 -0.869064 954.339 -0.594264Z" fill="#FF5B17"/>
<path d="M968.185 -37.6615C969.495 -25.9038 970.871 -13.1685 972.311 0.642284C966.257 0.0926857 960.279 -0.319584 954.339 -0.594383C953.581 -14.762 952.86 -27.8004 952.172 -39.8123C957.413 -39.3344 962.727 -38.6174 968.185 -37.6615Z" fill="#FF5B17"/>
<path d="M457.381 317.533L956.825 -180.292L1085.88 -51.8605L713.119 318.348C642.595 388.388 527.781 387.699 457.381 317.533Z" fill="#1D2336"/>
</g>
<mask id="mask2_10_13" style="mask-type:alpha" maskUnits="userSpaceOnUse" x="211" y="-422" width="648" height="645">
<path d="M832.52 196.516C902.873 126.504 826.829 -62.6819 662.672 -226.043C498.515 -389.403 308.405 -465.077 238.052 -395.065C167.699 -325.055 243.743 -135.868 407.9 27.4924C572.057 190.853 762.167 266.528 832.52 196.516Z" fill="#D2DCDC"/>
</mask>
<g mask="url(#mask2_10_13)">
<path d="M904.363 -421.025H198.772V219.389H904.363V-421.025Z" fill="#D2DCDC"/>
<mask id="mask3_10_13" style="mask-type:alpha" maskUnits="userSpaceOnUse" x="236" y="-199" width="309" height="308">
<path d="M390.759 108.537C475.881 108.537 544.888 39.8664 544.888 -44.8435C544.888 -129.553 475.881 -198.224 390.759 -198.224C305.636 -198.224 236.629 -129.553 236.629 -44.8435C236.629 39.8664 305.636 108.537 390.759 108.537Z" fill="#FF92B7"/>
</mask>
<g mask="url(#mask3_10_13)">
<path d="M544.887 -199.409H236.629V108.848H544.887V-199.409Z" fill="#4042EE"/>
<path d="M283.704 19.0801C276.769 21.0903 269.329 23.2009 261.333 25.412C262.043 19.1723 262.664 13.0769 263.196 7.09015C271.729 5.18988 279.625 3.37615 286.944 1.64868C286.019 7.22881 284.939 13.0163 283.704 19.0801Z" fill="#FF92B7"/>
<path d="M264.529 -10.5836C264.175 -4.7752 263.728 1.104 263.197 7.08613C257.743 8.30186 252.023 9.55613 246.031 10.8427C243.788 5.0792 241.88 -0.857869 240.343 -6.93654C248.925 -8.1972 256.98 -9.41294 264.529 -10.5836Z" fill="#FF92B7"/>
<path d="M307.219 -3.27438C301.001 -1.71971 294.261 -0.0786457 286.943 1.64882C287.869 -3.93131 288.64 -9.30425 289.257 -14.5389C296.848 -15.7953 303.809 -16.9888 310.201 -18.1194C309.405 -13.4018 308.411 -8.48651 307.219 -3.27438Z" fill="#FF92B7"/>
<path d="M319.661 8.22388C314.544 9.83188 309.023 11.5405 303.047 13.3496C304.639 7.44494 306.029 1.93601 307.223 -3.27625C313.443 -4.83092 319.139 -6.29932 324.373 -7.68132C323.028 -2.79839 321.456 2.46148 319.661 8.22388Z" fill="#FF92B7"/>
<path d="M345.917 -0.218809C342.215 0.987324 338.207 2.29386 333.847 3.70092C335.713 -1.93588 337.345 -6.97574 338.745 -11.5683C343.111 -12.7775 347.073 -13.9003 350.689 -14.9367C349.327 -10.5961 347.736 -5.74668 345.917 -0.218809Z" fill="#FF92B7"/>
<path d="M261.337 25.4129C260.865 29.5296 260.361 33.7108 259.812 37.9625C257.633 34.5727 255.591 31.0863 253.691 27.5164C256.289 26.8024 258.843 26.1012 261.337 25.4129Z" fill="#FF92B7"/>
<path d="M279.541 38.1684C278.105 44.3821 276.541 50.8916 274.835 57.7485C270.724 53.1495 266.885 48.3059 263.343 43.2436C269.017 41.4875 274.409 39.7959 279.541 38.1684Z" fill="#FF92B7"/>
<path d="M297.677 32.3501C292.013 34.1875 285.981 36.1269 279.539 38.1685C281.081 31.4828 282.469 25.1424 283.704 19.0787C290.64 17.0685 297.069 15.1589 303.045 13.3497C301.456 19.2545 299.665 25.5549 297.677 32.3501Z" fill="#FF92B7"/>
<path d="M291.115 54.3199C289.653 59.1506 288.115 64.1936 286.512 69.4939C282.801 66.1298 279.247 62.5919 275.867 58.8996C281.192 57.3044 286.267 55.7736 291.115 54.3199Z" fill="#FF92B7"/>
<path d="M306.192 49.8343C301.412 51.2414 296.396 52.7364 291.113 54.3194C293.5 46.4359 295.688 39.146 297.676 32.3509C303.339 30.5136 308.632 28.7783 313.597 27.1451C311.353 34.0381 308.885 41.5592 306.192 49.8343Z" fill="#FF92B7"/>
<path d="M297.44 77.0444C297.317 77.4304 297.195 77.8164 297.072 78.2087C296.689 77.9257 296.309 77.6361 295.928 77.3403C296.432 77.2373 296.936 77.1409 297.44 77.0444Z" fill="#FF92B7"/>
<path d="M327.551 22.5515C323.2 23.9805 318.564 25.5116 313.597 27.1448C315.841 20.2519 317.861 13.9869 319.657 8.22454C324.773 6.61654 329.487 5.10894 333.847 3.70187C331.98 9.33854 329.881 15.572 327.551 22.5515Z" fill="#FF92B7"/>
<path d="M332.281 42.4475C328.325 43.5028 324.193 44.646 319.855 45.8772C322.652 37.2567 325.217 29.5313 327.549 22.552C331.901 21.1229 335.963 19.7959 339.78 18.5709C337.509 25.6252 335.009 33.5275 332.281 42.4475Z" fill="#FF92B7"/>
<path d="M323.42 72.4263C321.701 78.4535 319.911 84.8215 318.063 91.5691C314.436 89.6521 310.887 87.5939 307.443 85.4004C308.573 81.676 309.679 78.0675 310.757 74.5747C315.089 73.8028 319.303 73.0888 323.42 72.4263Z" fill="#FF92B7"/>
<path d="M350.533 15.2021C347.168 16.2229 343.597 17.3457 339.781 18.5707C342.055 11.5164 344.1 5.31027 345.917 -0.217593C349.62 -1.42373 353.02 -2.52919 356.167 -3.53439C354.497 1.90134 352.62 8.08454 350.533 15.2021Z" fill="#FF92B7"/>
<path d="M310.761 74.5739C306.436 75.3433 302.001 76.1679 297.439 77.0472C300.581 67.139 303.499 58.1103 306.192 49.8352C310.972 48.4281 315.517 47.1091 319.856 45.8777C317.057 54.4983 314.027 64.0139 310.761 74.5739Z" fill="#FF92B7"/>
<path d="M335.512 70.6148C331.567 71.1645 327.541 71.7691 323.421 72.4287C326.603 61.3039 329.556 51.3663 332.283 42.4464C336.239 41.3911 340.017 40.4237 343.649 39.5443C341.144 48.7175 338.432 59.0121 335.512 70.6148Z" fill="#FF92B7"/>
<path d="M354.132 37.1709C350.765 37.8744 347.28 38.6659 343.649 39.5453C346.152 30.372 348.449 22.3201 350.535 15.2025C353.9 14.1817 357.061 13.2629 360.057 12.4464C358.263 19.6159 356.285 27.7904 354.132 37.1709Z" fill="#FF92B7"/>
<path d="M347.131 69.1341C345.088 78.8856 342.923 89.5761 340.641 101.302C336.717 99.9709 332.865 98.4851 329.091 96.8577C331.34 87.4343 333.479 78.7055 335.516 70.6136C339.459 70.0668 343.324 69.5715 347.131 69.1341Z" fill="#FF92B7"/>
<path d="M368.593 10.3028C365.885 10.9152 363.053 11.6297 360.056 12.4464C361.852 5.27694 363.468 -0.887465 364.904 -6.24773C367.596 -7.05173 370.089 -7.75533 372.428 -8.3584C371.291 -3.05666 370.013 3.09307 368.593 10.3028Z" fill="#FF92B7"/>
<path d="M373.153 34.0039C370.14 34.3555 367.068 34.7953 363.908 35.3229C365.612 25.7812 367.175 17.5113 368.595 10.3016C371.304 9.68921 373.891 9.1788 376.393 8.77054C375.412 16.0091 374.332 24.3468 373.153 34.0039Z" fill="#FF92B7"/>
<path d="M369.325 67.1519C368.007 79.1097 366.604 92.4761 365.117 107.437C360.909 106.737 356.753 105.875 352.668 104.845C354.685 91.2604 356.579 79.0196 358.369 67.9752C362.06 67.6472 365.705 67.3705 369.325 67.1519Z" fill="#FF92B7"/>
<path d="M383.699 7.85242C381.317 8.05655 378.895 8.36269 376.391 8.77109C377.375 1.53255 378.257 -4.60678 379.043 -9.86651C381.132 -10.2685 383.117 -10.5701 385.052 -10.7712C384.652 -5.53651 384.2 0.596686 383.699 7.85242Z" fill="#FF92B7"/>
<path d="M358.368 67.9775C354.675 68.3072 350.933 68.6921 347.129 69.1317C349.644 57.138 351.977 46.5515 354.132 37.1708C357.499 36.4673 360.747 35.8517 363.908 35.324C362.203 44.8659 360.356 55.6796 358.368 67.9775Z" fill="#FF92B7"/>
<path d="M380.088 66.6573C376.52 66.7673 372.936 66.9323 369.323 67.152C370.696 54.6369 371.972 43.6609 373.151 34.0039C376.165 33.6521 379.12 33.3883 382.044 33.2124C381.441 42.9384 380.789 54.0119 380.088 66.6573Z" fill="#FF92B7"/>
<path d="M390.76 32.9488C387.865 32.9488 384.969 33.0367 382.044 33.2125C382.647 23.4865 383.197 15.108 383.7 7.85213C386.08 7.648 388.42 7.54587 390.76 7.54587V32.9488Z" fill="#FF92B7"/>
<path d="M390.761 66.4956V109.535C386.419 109.535 382.113 109.355 377.86 109.007C378.655 93.2029 379.399 79.1609 380.091 66.6564C383.657 66.5471 387.213 66.4956 390.761 66.4956Z" fill="#FF92B7"/>
<path d="M397.82 7.85294C395.44 7.6488 393.1 7.54667 390.76 7.54667V-11.0721C392.644 -11.0721 394.531 -10.9716 396.465 -10.7707C396.868 -5.536 397.319 0.597072 397.82 7.85294Z" fill="#FF92B7"/>
<path d="M408.368 34.0053C405.356 33.6536 402.401 33.3897 399.477 33.2139C398.875 23.4877 398.323 15.1092 397.821 7.85333C400.203 8.05747 402.624 8.36373 405.128 8.772C406.111 16.0105 407.189 24.3484 408.368 34.0053Z" fill="#FF92B7"/>
<path d="M416.401 107.437C412.207 108.132 407.96 108.653 403.661 109.008C402.867 93.2029 402.123 79.1612 401.431 66.6566C405 66.766 408.58 66.9331 412.193 67.1519C413.512 79.1098 414.915 92.4762 416.401 107.437Z" fill="#FF92B7"/>
<path d="M412.923 10.3028C410.215 9.69039 407.628 9.17999 405.124 8.77172C404.143 1.53319 403.259 -4.60601 402.473 -9.86588C404.559 -9.46388 406.748 -8.96134 409.088 -8.35828C410.227 -3.05667 411.503 3.09306 412.923 10.3028Z" fill="#FF92B7"/>
<path d="M401.431 66.6584C397.863 66.5485 394.312 66.4935 390.76 66.4936V32.9497C393.653 32.9497 396.549 33.0376 399.475 33.2135C400.076 42.9396 400.728 54.0131 401.431 66.6584Z" fill="#FF92B7"/>
<path d="M423.152 67.9768C419.459 67.6471 415.812 67.3723 412.197 67.1524C410.823 54.6372 409.545 43.6612 408.368 34.0043C411.381 34.356 414.453 34.7956 417.613 35.3233C419.319 44.8652 421.164 55.6789 423.152 67.9768Z" fill="#FF92B7"/>
<path d="M427.388 37.1691C424.023 36.4655 420.775 35.8499 417.613 35.3223C415.909 25.7805 414.347 17.5107 412.927 10.3009C415.635 10.9135 418.467 11.6279 421.463 12.4445C423.259 19.614 425.235 27.7884 427.388 37.1691Z" fill="#FF92B7"/>
<path d="M440.88 101.301C436.943 102.64 432.929 103.823 428.851 104.845C426.833 91.2604 424.94 79.0196 423.149 67.9752C426.847 68.3097 430.583 68.6892 434.389 69.1331C436.432 78.8845 438.597 89.5752 440.88 101.301Z" fill="#FF92B7"/>
<path d="M461.863 8.22361C456.745 6.61548 452.032 5.10788 447.673 3.70081C445.807 -1.93599 444.176 -6.97586 442.775 -11.5684C447.143 -10.3592 451.915 -9.06359 457.149 -7.68159C458.496 -2.79866 460.067 2.46121 461.863 8.22361Z" fill="#FF92B7"/>
<path d="M497.816 19.0789C490.881 17.0689 484.451 15.1593 478.476 13.3501C476.884 7.44547 475.493 1.93654 474.3 -3.27573C480.517 -1.72106 487.257 -0.079993 494.576 1.64747C495.503 7.22761 496.581 13.0151 497.816 19.0789Z" fill="#FF92B7"/>
<path d="M518.324 7.08881C509.789 5.18868 501.893 3.37481 494.575 1.64734C493.648 -3.93279 492.879 -9.30559 492.261 -14.5404C499.852 -13.284 508.076 -11.9649 516.992 -10.5829C517.348 -4.77666 517.792 1.10188 518.324 7.08881Z" fill="#FF92B7"/>
<path d="M535.491 10.8428C533.267 16.574 530.707 22.138 527.831 27.5155C525.232 26.8015 522.679 26.1004 520.184 25.4121C519.479 19.1727 518.852 13.0748 518.323 7.08627C523.777 8.30201 529.499 9.55627 535.491 10.8428Z" fill="#FF92B7"/>
<path d="M430.984 15.2024C427.619 14.1817 424.459 13.2631 421.461 12.4464C419.667 5.27694 418.051 -0.887326 416.615 -6.24773C419.308 -5.44373 422.204 -4.53919 425.351 -3.53413C427.019 1.90161 428.897 8.08481 430.984 15.2024Z" fill="#FF92B7"/>
<path d="M449.236 42.4463C445.28 41.3911 441.501 40.4236 437.869 39.5442C435.367 30.371 433.071 22.319 430.984 15.2014C434.351 16.2222 437.92 17.345 441.737 18.5699C444.008 25.6242 446.508 33.5264 449.236 42.4463Z" fill="#FF92B7"/>
<path d="M463.465 91.5685C459.871 93.4725 456.187 95.2349 452.432 96.856C450.183 87.4325 448.043 78.7037 446.007 70.6119C449.956 71.1649 453.983 71.7696 458.1 72.4257C459.819 78.4529 461.609 84.8209 463.465 91.5685Z" fill="#FF92B7"/>
<path d="M453.967 22.5524C449.617 21.1233 445.555 19.7963 441.737 18.5714C439.464 11.5171 437.419 5.31095 435.601 -0.216919C439.304 0.989081 443.311 2.29575 447.671 3.70281C449.536 9.33948 451.635 15.5729 453.967 22.5524Z" fill="#FF92B7"/>
<path d="M446.007 70.6157C442.06 70.0661 438.195 69.5715 434.389 69.1316C431.876 57.138 429.541 46.5513 427.387 37.1708C430.755 37.8743 434.239 38.6657 437.869 39.5452C440.375 48.7184 443.085 59.0131 446.007 70.6157Z" fill="#FF92B7"/>
<path d="M470.757 74.5724C466.431 73.8029 462.219 73.0884 458.099 72.4288C454.917 61.304 451.963 51.3665 449.236 42.4467C453.191 43.5019 457.324 44.6452 461.663 45.8764C464.46 54.4968 467.492 64.0125 470.757 74.5724Z" fill="#FF92B7"/>
<path d="M475.328 49.8338C470.548 48.4267 466.003 47.1076 461.664 45.8763C458.865 37.2559 456.301 29.5306 453.968 22.5511C458.319 23.9802 462.956 25.5114 467.923 27.1446C470.167 34.0376 472.636 41.5588 475.328 49.8338Z" fill="#FF92B7"/>
<path d="M484.444 78.2095C481.089 80.7503 477.632 83.1496 474.071 85.4073C472.939 81.6765 471.833 78.068 470.755 74.5752C475.085 75.3407 479.519 76.164 484.076 77.0452C484.199 77.4312 484.321 77.8172 484.444 78.2095Z" fill="#FF92B7"/>
<path d="M483.847 32.3509C478.184 30.5136 472.889 28.7783 467.924 27.1451C465.68 20.252 463.66 13.9871 461.864 8.22481C466.981 9.83294 472.503 11.5415 478.479 13.3505C480.068 19.2553 481.859 25.5557 483.847 32.3509Z" fill="#FF92B7"/>
<path d="M506.691 57.7479C506.348 58.1337 505.999 58.5133 505.656 58.8993C500.329 57.304 495.256 55.7731 490.408 54.3193C488.023 46.4333 485.832 39.1455 483.847 32.3528C489.509 34.1861 495.54 36.1287 501.984 38.1677C503.42 44.3813 504.984 50.8909 506.691 57.7479Z" fill="#FF92B7"/>
<path d="M521.709 37.9624C520.572 39.7505 519.396 41.5065 518.18 43.2433C512.505 41.4872 507.115 39.7955 501.983 38.1681C500.437 31.4849 499.048 25.1425 497.82 19.0768C504.749 21.0901 512.195 23.2 520.184 25.4127C520.656 29.5295 521.16 33.7107 521.709 37.9624Z" fill="#FF92B7"/>
<path d="M495.007 69.4933C491.975 72.2271 488.833 74.8515 485.588 77.3408C485.084 77.2379 484.58 77.1415 484.076 77.0449C480.935 67.1391 478.02 58.108 475.324 49.836C480.108 51.2447 485.124 52.7369 490.404 54.3193C491.865 59.15 493.403 64.1931 495.007 69.4933Z" fill="#FF92B7"/>
</g>
<path d="M516.401 181.529L572.969 125.14C580.78 117.355 580.769 104.743 572.945 96.9698L558.78 82.8964C550.956 75.1239 550.945 62.5115 558.756 54.7259L615.324 -1.66278C623.135 -9.44852 623.123 -22.0609 615.3 -29.8334L601.133 -43.9068C593.311 -51.6792 593.3 -64.2917 601.109 -72.0773L657.677 -128.466C665.488 -136.252 665.477 -148.864 657.653 -156.637L643.488 -170.709C635.664 -178.483 635.653 -191.095 643.464 -198.88L700.032 -255.269C707.843 -263.055 707.832 -275.667 700.008 -283.44L685.843 -297.513C678.019 -305.285 678.008 -317.897 685.819 -325.684L742.387 -382.072C750.197 -389.857 762.871 -389.868 770.695 -382.096L954.852 -199.143C962.675 -191.369 962.685 -178.757 954.876 -170.972L558.899 223.749C551.088 231.535 538.415 231.545 530.591 223.773L516.425 209.7C508.601 201.927 508.591 189.315 516.401 181.529Z" fill="#E2F700"/>
<path d="M725.841 303.76L938.284 92.35L810.819 -34.4965L598.376 176.915L725.841 303.76Z" fill="#4042EE"/>
</g>
<path d="M678.044 51.296C694.636 51.296 708.088 37.9101 708.088 21.398C708.088 4.88573 694.636 -8.5 678.044 -8.5C661.451 -8.5 648 4.88573 648 21.398C648 37.9101 661.451 51.296 678.044 51.296Z" fill="#FF2C00"/>
<mask id="mask4_10_13" style="mask-type:alpha" maskUnits="userSpaceOnUse" x="967" y="-519" width="840" height="835">
<path d="M1387.07 315.584C1618.52 315.584 1806.16 128.864 1806.16 -101.468C1806.16 -331.799 1618.52 -518.52 1387.07 -518.52C1155.61 -518.52 967.983 -331.799 967.983 -101.468C967.983 128.864 1155.61 315.584 1387.07 315.584Z" fill="#D2DCDC"/>
</mask>
<g mask="url(#mask4_10_13)">
<path d="M1806.16 -518.52H966.985V320.549H1806.16V-518.52Z" fill="#D2DCDC"/>
<path d="M1388.07 -102.461H966.985V136.848H1388.07V-102.461Z" fill="#E2F700"/>
<path d="M1731.32 136.848H1042.82V316.577H1731.32V136.848Z" fill="#4042EE"/>
<path d="M1686.41 -518.52H1387.07V315.584H1686.41V-518.52Z" fill="#00DA72"/>
<path d="M1465.89 204.371V187.489H1448.93V204.371H1465.89Z" fill="#4042EE"/>
<path d="M1482.87 187.489V170.609H1465.89V187.489H1482.87Z" fill="#4042EE"/>
<path d="M1499.83 170.609V153.728H1482.87V170.609H1499.83Z" fill="#4042EE"/>
<path d="M1499.83 204.371V187.489H1482.87V204.371H1499.83Z" fill="#4042EE"/>
<path d="M1482.87 221.251V204.371H1465.89V221.251H1482.87Z" fill="#4042EE"/>
<path d="M1686.41 153.728V136.848H1669.45V153.728H1686.41Z" fill="#4042EE"/>
<path d="M1669.45 170.609V153.728H1652.49V170.609H1669.45Z" fill="#4042EE"/>
<path d="M1635.53 170.609V153.728H1618.56V170.609H1635.53Z" fill="#4042EE"/>
<path d="M1686.41 187.489V170.609H1669.45V187.489H1686.41Z" fill="#4042EE"/>
<path d="M1652.49 153.728V136.848H1635.53V153.728H1652.49Z" fill="#4042EE"/>
<path d="M1652.49 187.489V170.609H1635.53V187.489H1652.49Z" fill="#4042EE"/>
<path d="M1669.45 204.371V187.489H1652.49V204.371H1669.45Z" fill="#4042EE"/>
<path d="M1635.53 204.371V187.489H1618.56V204.371H1635.53Z" fill="#4042EE"/>
<path d="M1686.41 221.251V204.371H1669.45V221.251H1686.41Z" fill="#4042EE"/>
<path d="M1652.49 221.251V204.371H1635.53V221.251H1652.49Z" fill="#4042EE"/>
<path d="M1618.56 153.728V136.848H1601.6V153.728H1618.56Z" fill="#4042EE"/>
<path d="M1601.6 170.609V153.728H1584.64V170.609H1601.6Z" fill="#4042EE"/>
<path d="M1567.68 170.609V153.728H1550.71V170.609H1567.68Z" fill="#4042EE"/>
<path d="M1618.56 187.489V170.609H1601.6V187.489H1618.56Z" fill="#4042EE"/>
<path d="M1584.64 153.728V136.848H1567.68V153.728H1584.64Z" fill="#4042EE"/>
<path d="M1584.64 187.489V170.609H1567.68V187.489H1584.64Z" fill="#4042EE"/>
<path d="M1601.6 204.371V187.489H1584.64V204.371H1601.6Z" fill="#4042EE"/>
<path d="M1567.68 204.371V187.489H1550.71V204.371H1567.68Z" fill="#4042EE"/>
<path d="M1618.56 221.251V204.371H1601.6V221.251H1618.56Z" fill="#4042EE"/>
<path d="M1584.64 221.251V204.371H1567.68V221.251H1584.64Z" fill="#4042EE"/>
<path d="M1550.71 153.728V136.848H1533.75V153.728H1550.71Z" fill="#4042EE"/>
<path d="M1533.75 170.609V153.728H1516.79V170.609H1533.75Z" fill="#4042EE"/>
<path d="M1550.71 187.489V170.609H1533.75V187.489H1550.71Z" fill="#4042EE"/>
<path d="M1516.79 153.728V136.848H1499.83V153.728H1516.79Z" fill="#4042EE"/>
<path d="M1516.79 187.489V170.609H1499.83V187.489H1516.79Z" fill="#4042EE"/>
<path d="M1533.75 204.371V187.489H1516.79V204.371H1533.75Z" fill="#4042EE"/>
<path d="M1550.71 221.251V204.371H1533.75V221.251H1550.71Z" fill="#4042EE"/>
<path d="M1516.79 221.251V204.371H1499.83V221.251H1516.79Z" fill="#4042EE"/>
<path d="M1465.89 170.609V153.728H1448.93V170.609H1465.89Z" fill="#4042EE"/>
<path d="M1448.93 187.489V170.609H1431.97V187.489H1448.93Z" fill="#4042EE"/>
<path d="M1431.97 170.609V153.728H1415.01V170.609H1431.97Z" fill="#4042EE"/>
<path d="M1431.97 204.371V187.489H1415.01V204.371H1431.97Z" fill="#4042EE"/>
<path d="M1448.93 221.251V204.371H1431.97V221.251H1448.93Z" fill="#4042EE"/>
<path d="M1448.93 153.728V136.848H1431.97V153.728H1448.93Z" fill="#4042EE"/>
<path d="M1482.87 153.728V136.848H1465.89V153.728H1482.87Z" fill="#4042EE"/>
<path d="M1415.01 153.728V136.848H1398.04V153.728H1415.01Z" fill="#4042EE"/>
<path d="M1398.04 170.609V153.728H1381.08V170.609H1398.04Z" fill="#4042EE"/>
<path d="M1415.01 187.489V170.609H1398.04V187.489H1415.01Z" fill="#4042EE"/>
<path d="M1398.04 204.371V187.489H1381.08V204.371H1398.04Z" fill="#4042EE"/>
<path d="M1415.01 221.251V204.371H1398.04V221.251H1415.01Z" fill="#4042EE"/>
<path d="M1268.62 -41.8888C1269.08 -41.8888 1269.54 -41.8865 1270 -41.882L1269.97 -38.7396C1259.59 -38.8536 1249.51 -37.6989 1239.95 -35.325L1239.19 -38.3732C1248.58 -40.706 1258.48 -41.8888 1268.62 -41.8888ZM1300.76 -38.19L1300.93 -38.1512C1311 -35.4603 1320.61 -31.5145 1329.52 -26.4109L1327.95 -23.6881C1319.27 -28.6556 1309.92 -32.4966 1300.16 -35.1053L1300.08 -35.1205L1300.76 -38.19ZM1354.16 -7.62399C1361.48 -0.327454 1367.84 7.91321 1373.05 16.8684L1370.32 18.4419C1365.25 9.72308 1359.05 1.70055 1351.92 -5.40292L1354.16 -7.62399ZM1384.97 45.3759C1387.68 55.3649 1389.05 65.6632 1389.07 75.986L1385.91 75.9875C1385.91 65.9407 1384.56 55.9175 1381.92 46.1953L1384.97 45.3759ZM1151.6 76.2497L1154.75 76.2968C1154.75 76.8928 1154.74 77.4872 1154.74 78.0824C1154.74 87.6457 1155.9 97.0951 1158.18 106.167L1155.12 106.931C1152.77 97.6089 1151.58 87.9035 1151.58 78.0824C1151.58 77.472 1151.59 76.8609 1151.6 76.2497ZM1381.97 105.792L1385.01 106.608L1384.97 106.787C1382.27 116.816 1378.27 126.416 1373.11 135.323L1370.37 133.753C1375.4 125.083 1379.28 115.737 1381.92 105.976L1381.97 105.792ZM1169.46 134.015C1174.48 142.668 1180.73 150.619 1188.05 157.647L1185.86 159.908C1178.33 152.676 1171.89 144.493 1166.73 135.585L1169.46 134.015ZM1351.96 157.587L1354.19 159.811C1346.85 167.097 1338.56 173.413 1329.55 178.584L1327.97 175.863C1336.75 170.828 1344.81 164.68 1351.96 157.587ZM1212.35 175.525C1220.81 180.263 1230.16 184.236 1240.16 187.336L1240.2 187.351L1239.31 190.365L1239.76 188.857L1239.31 190.364C1229.03 187.179 1219.46 183.113 1210.8 178.264L1212.35 175.525ZM1300.07 187.373L1300.89 190.408C1290.87 193.084 1280.56 194.441 1270.22 194.441H1270.12V191.299H1270.22C1280.28 191.299 1290.32 189.977 1300.07 187.373Z" fill="#87A0AF"/>
<path d="M1270.1 -39.0076C1280.23 -39.0076 1290.23 -37.7161 1299.88 -35.1689L1298.66 -30.6004C1289.41 -33.042 1279.81 -34.281 1270.14 -34.281L1270.05 -34.2757L1269.83 -38.9977L1270.09 -39.0076L1270.1 -39.0076ZM1327.8 -23.7136C1336.55 -18.7027 1344.61 -12.5593 1351.79 -5.45504L1348.44 -2.10584C1341.56 -8.91984 1333.83 -14.8116 1325.43 -19.618L1327.8 -23.7136ZM1370.23 18.3304C1375.32 27.034 1379.23 36.3648 1381.85 46.0627L1377.27 47.294C1374.75 37.9968 1371 29.0515 1366.12 20.7067L1370.23 18.3304ZM1385.84 75.838V76.1124C1385.84 86.2124 1384.52 96.2341 1381.93 105.9L1377.33 104.679C1379.83 95.4116 1381.09 85.8004 1381.09 76.1124V75.8593L1385.84 75.838ZM1163.37 104.887C1165.78 114.347 1169.36 123.364 1174.02 131.688L1169.87 133.988C1165.01 125.305 1161.27 115.904 1158.77 106.045L1163.37 104.887ZM1366.25 131.299L1370.36 133.665C1365.31 142.359 1359.12 150.376 1351.97 157.495L1348.61 154.153C1355.47 147.325 1361.4 139.636 1366.25 131.299ZM1191.42 154.66C1198.22 161.421 1206 167.227 1214.53 171.916L1212.23 176.055C1203.31 171.151 1195.18 165.079 1188.06 158.004L1191.42 154.66ZM1325.65 171.715L1328.03 175.807C1319.28 180.852 1309.89 184.727 1300.14 187.324L1298.91 182.757C1308.26 180.268 1317.26 176.552 1325.65 171.715ZM1241.49 182.449C1250.52 184.745 1260.19 186.111 1270.24 186.508L1270.17 188.288L1270.2 191.232L1270.05 191.231C1259.67 190.82 1249.67 189.408 1240.31 187.031L1241.49 182.449Z" fill="#87A0AF"/>
<path d="M1268.76 -33.9464C1269.14 -33.9464 1269.52 -33.9449 1269.9 -33.9411L1269.83 -26.8718C1260.53 -26.9759 1251.48 -25.9156 1242.91 -23.7773L1241.18 -30.6337C1249.99 -32.8321 1259.27 -33.9464 1268.76 -33.9464ZM1298.48 -30.5486L1298.77 -30.4817C1308.12 -27.9953 1317.08 -24.3261 1325.4 -19.5752L1321.87 -13.444C1314.08 -17.8885 1305.69 -21.3235 1296.93 -23.6511L1297.37 -25.2877L1298.48 -30.5486ZM1348.4 -2.07985C1355.25 4.71721 1361.19 12.3955 1366.05 20.7403L1359.91 24.2887C1355.35 16.4752 1349.79 9.28721 1343.39 2.92481L1348.4 -2.07985ZM1377.2 47.3117C1379.75 56.6264 1381.04 66.2308 1381.05 75.8587L1373.95 75.8709C1373.93 66.864 1372.72 57.8784 1370.35 49.1633L1377.2 47.3117ZM1159.57 76.3429L1166.68 76.4387C1166.67 76.9291 1166.67 77.4193 1166.67 77.9096C1166.67 86.5349 1167.72 95.0523 1169.79 103.224L1162.89 104.951C1160.68 96.2145 1159.56 87.1164 1159.56 77.9096C1159.56 77.3873 1159.57 76.8651 1159.57 76.3429ZM1370.45 102.612L1377.32 104.415L1377.27 104.616C1374.76 113.945 1371.05 122.903 1366.24 131.219L1360.08 127.692C1364.59 119.911 1368.05 111.525 1370.4 102.769L1370.45 102.612ZM1179.92 128.152C1184.42 135.892 1190.03 143.005 1196.59 149.291L1191.67 154.385C1184.62 147.64 1178.6 140.004 1173.77 131.691L1179.92 128.152ZM1343.6 149.08L1348.63 154.08C1341.79 160.884 1334.07 166.784 1325.67 171.616L1322.11 165.496C1329.97 160.973 1337.2 155.449 1343.6 149.08ZM1218.41 165.304C1226.03 169.561 1234.47 173.132 1243.49 175.913L1242.63 178.664L1241.61 182.729L1241.34 182.655C1231.89 179.736 1222.99 175.969 1214.93 171.468L1218.41 165.304ZM1297.1 175.849L1298.95 182.676C1289.58 185.191 1279.93 186.468 1270.25 186.471L1270.25 179.401C1279.3 179.399 1288.34 178.204 1297.1 175.849Z" fill="#87A0AF"/>
</g>
<mask id="mask5_10_13" style="mask-type:alpha" maskUnits="userSpaceOnUse" x="967" y="-281" width="840" height="359">
<path d="M1806.16 -101.462C1806.16 -200.176 1618.52 -280.2 1387.07 -280.201C1155.61 -280.203 967.983 -200.181 967.983 -101.468C967.983 -2.75427 1155.61 77.2701 1387.07 77.2717C1618.52 77.2733 1806.16 -2.74841 1806.16 -101.462Z" fill="#D2DCDC"/>
</mask>
<g mask="url(#mask5_10_13)">
<path d="M1803.16 79.2607V-281.192L964.989 -281.197V79.2549L1803.16 79.2607Z" fill="#D2DCDC"/>
<path d="M1687.41 76.2758V-121.327H1447.93V76.2758H1687.41Z" fill="#1D2336"/>
<path d="M1147.59 45.4933V-249.423H967.985V45.4933H1147.59Z" fill="#FF92B7"/>
<path d="M1806.65 23.9994V-227.576L1686.41 -227.577V23.9986L1806.65 23.9994Z" fill="#4042EE"/>
<path d="M1625.55 236.939L1625.52 157.717C1625.55 146.74 1616.63 137.88 1605.68 137.859H1585.84C1574.89 137.836 1565.97 127.984 1566 117.007V37.5742C1566.03 26.5973 1557.6 17.7379 1546.65 17.7159H1526.65C1515.71 17.6938 1506.45 8.83444 1506.48 -2.14249V-81.5756C1506.49 -92.5525 1498.57 -101.412 1487.63 -101.434H1467.79C1456.84 -101.456 1447.92 -110.743 1447.95 -121.72V-201.221C1447.97 -212.199 1439.01 -220.469 1428.07 -220.491L1408.24 -220.531C1397.29 -220.553 1387.05 -230.501 1387.07 -241.479V-319.924C1387.09 -330.9 1397.53 -339.805 1408.48 -339.783L1666.19 -339.264C1677.13 -339.243 1686.44 -330.388 1686.41 -319.411V236.605C1686.4 247.581 1675.95 257.02 1665 256.999L1645.17 256.959C1634.23 256.936 1625.52 247.916 1625.55 236.939Z" fill="#E2F700"/>
<mask id="mask6_10_13" style="mask-type:alpha" maskUnits="userSpaceOnUse" x="1148" y="-42" width="241" height="239">
<path d="M1268.33 196.427C1334.45 196.427 1388.07 143.077 1388.07 77.269C1388.07 11.4599 1334.45 -41.8888 1268.33 -41.8888C1202.2 -41.8888 1148.59 11.4599 1148.59 77.269C1148.59 143.077 1202.2 196.427 1268.33 196.427Z" fill="#FF5B17"/>
</mask>
<g mask="url(#mask6_10_13)">
<path d="M1393.05 -89.2093H1153.58V213.132H1393.05V-89.2093Z" fill="#FF5B17"/>
<path d="M1268.4 197.42L1268.38 194.229C1278.65 194.229 1288.87 192.881 1298.79 190.223L1299.62 193.304C1289.43 196.035 1278.93 197.42 1268.4 197.42ZM1237.14 193.313L1237.01 193.277C1226.83 190.559 1217.08 186.547 1208.02 181.359L1209.62 178.593C1218.43 183.644 1227.93 187.549 1237.85 190.2L1237.14 193.313ZM1328.71 181.277L1327.11 178.515C1336.01 173.399 1344.2 167.149 1351.45 159.941L1353.72 162.199C1346.27 169.603 1337.85 176.021 1328.71 181.277ZM1183.01 162.275C1175.57 154.863 1169.12 146.495 1163.83 137.4L1166.61 135.803C1171.75 144.656 1178.03 152.804 1185.28 160.019L1183.01 162.275ZM1372.91 137.32L1370.12 135.728C1375.21 126.945 1379.13 117.479 1381.81 107.592L1383.37 107.928L1384.91 108.393C1382.16 118.573 1378.12 128.297 1372.91 137.32ZM1151.74 108.452C1148.99 98.3072 1147.59 87.8488 1147.59 77.3689L1150.8 77.3678C1150.8 87.5683 1152.16 97.7464 1154.83 107.62L1151.74 108.452ZM1387.45 77.2528H1385.85C1385.85 67.012 1384.51 56.8518 1381.84 46.9966L1384.93 46.1675C1387.68 56.2932 1389.07 66.7326 1389.07 77.1954L1387.45 77.2528ZM1154.84 46.9452L1151.7 46.2846L1151.73 46.1976C1154.5 35.9374 1158.55 26.1894 1163.79 17.1448L1166.57 18.7395C1161.46 27.5435 1157.52 37.0332 1154.84 46.9452ZM1370.08 18.8064C1364.95 9.9495 1358.67 1.79791 1351.43 -5.42263L1353.69 -7.67676C1361.13 -0.25996 1367.59 8.11391 1372.87 17.2119L1370.08 18.8064ZM1185.26 -5.45943L1182.99 -7.7181C1190.45 -15.1182 1198.87 -21.5319 1208.01 -26.7806L1209.61 -24.0165C1200.71 -18.9067 1192.52 -12.6633 1185.26 -5.45943ZM1327.11 -24.0131C1318.27 -29.0844 1308.74 -33.0035 1298.8 -35.6616L1299.58 -38.756L1299.65 -38.7381C1309.85 -36.0125 1319.63 -31.9869 1328.71 -26.7772L1327.11 -24.0131ZM1237.95 -35.7062L1237.11 -38.7873C1247.28 -41.5039 1257.75 -42.8815 1268.25 -42.8815H1268.25L1268.35 -39.6911H1268.34C1258.03 -39.6911 1247.84 -38.3504 1237.95 -35.7062Z" fill="#4042EE"/>
<path d="M1268.51 194.161H1268.32C1258.09 194.161 1247.92 192.848 1238.11 190.259L1239.35 185.62C1248.75 188.103 1258.5 189.361 1268.32 189.361H1268.51V194.161ZM1298.9 190.161L1297.65 185.525C1307.14 182.985 1316.27 179.203 1324.79 174.283L1327.21 178.435C1318.33 183.565 1308.8 187.511 1298.9 190.161ZM1209.76 178.621C1200.89 173.531 1192.7 167.292 1185.42 160.076L1188.82 156.676C1195.8 163.597 1203.66 169.581 1212.17 174.463L1209.76 178.621ZM1351.49 159.816L1348.08 156.425C1355.04 149.485 1361.05 141.672 1365.96 133.2L1370.13 135.599C1365.01 144.432 1358.75 152.579 1351.49 159.816ZM1166.7 135.921C1161.53 127.084 1157.57 117.609 1154.9 107.76L1159.55 106.511C1162.11 115.953 1165.92 125.036 1170.87 133.511L1166.7 135.921ZM1381.85 107.393L1377.19 106.16C1379.69 96.7839 1380.96 87.0638 1380.96 77.269V77.1456H1385.79V77.269C1385.79 87.48 1384.47 97.6154 1381.85 107.393ZM1155.68 77.515H1150.86V77.269C1150.86 67.0143 1152.2 56.8378 1154.83 47.0228L1159.49 48.2614C1156.97 57.673 1155.68 67.4322 1155.68 77.269V77.515ZM1377.12 48.142C1374.57 38.6998 1370.79 29.6123 1365.84 21.1315L1370.01 18.7244C1375.17 27.5696 1379.13 37.0488 1381.79 46.899L1377.12 48.142ZM1170.75 21.2319L1166.57 18.8294C1171.7 10.0019 1177.99 1.86083 1185.25 -5.36863L1188.66 -1.97503C1181.69 4.95857 1175.67 12.7666 1170.75 21.2319ZM1347.91 -2.05383C1340.95 -8.98077 1333.09 -14.9732 1324.58 -19.8648L1326.99 -24.0215C1335.87 -18.9207 1344.05 -12.6722 1351.32 -5.45063L1347.91 -2.05383ZM1211.97 -19.8073L1209.55 -23.9608C1218.44 -29.0839 1227.97 -33.0186 1237.87 -35.6566L1239.11 -31.0199C1229.62 -28.4913 1220.49 -24.7184 1211.97 -19.8073ZM1297.41 -31.0512C1287.98 -33.5548 1278.19 -34.8246 1268.32 -34.8246L1268.26 -39.6242H1268.32C1278.61 -39.6242 1288.81 -38.3002 1298.66 -35.689L1297.41 -31.0512Z" fill="#4042EE"/>
<path d="M1268.52 189.328L1268.51 182.149C1277.7 182.14 1286.87 180.92 1295.76 178.524L1297.65 185.452C1288.14 188.013 1278.34 189.317 1268.52 189.328ZM1239.39 185.537L1239.25 185.499C1229.76 182.976 1220.65 179.245 1212.2 174.416L1215.79 168.191C1223.7 172.711 1232.23 176.201 1241.13 178.568L1239.39 185.537ZM1324.77 174.204L1321.15 167.993C1329.13 163.395 1336.47 157.781 1342.96 151.309L1348.07 156.383C1341.12 163.296 1333.29 169.292 1324.77 174.204ZM1188.86 156.645C1181.91 149.743 1175.88 141.945 1170.94 133.469L1177.18 129.868C1181.8 137.803 1187.45 145.103 1193.95 151.565L1188.86 156.645ZM1365.93 133.156L1359.68 129.581C1364.23 121.697 1367.73 113.204 1370.12 104.336L1370.15 104.225L1377.09 106.169C1374.55 115.66 1370.79 124.733 1365.93 133.156ZM1159.63 106.487C1157.05 97.0275 1155.74 87.2744 1155.72 77.4984L1162.94 77.4884C1162.95 86.6338 1164.18 95.758 1166.59 104.608L1159.63 106.487ZM1373.72 77.123C1373.71 67.978 1372.49 58.8527 1370.08 50.0008L1377.05 48.1271C1379.61 57.5884 1380.92 67.342 1380.93 77.1184L1373.72 77.123ZM1166.53 50.2016L1159.52 48.5139L1159.57 48.3203C1162.11 38.8495 1165.88 29.7543 1170.77 21.3142L1177.02 24.8951C1172.45 32.793 1168.92 41.3074 1166.53 50.2016ZM1359.51 24.7327C1354.89 16.7952 1349.25 9.49164 1342.76 3.02444L1347.85 -2.05289C1354.8 4.85617 1360.83 12.658 1365.76 21.1362L1359.51 24.7327ZM1193.75 3.1767L1188.65 -1.89956C1195.59 -8.80809 1203.43 -14.7989 1211.95 -19.7055L1215.57 -13.4921C1207.59 -8.89796 1200.25 -3.28996 1193.75 3.1767ZM1320.93 -13.6166C1313.02 -18.1405 1304.5 -21.6366 1295.61 -24.009L1295.43 -24.057L1296.43 -27.5554L1297.22 -31.0058L1297.39 -30.9662C1306.92 -28.432 1316.05 -24.6886 1324.52 -19.84L1320.93 -13.6166ZM1240.96 -24.004L1239.08 -30.9349C1248.59 -33.4887 1258.39 -34.7854 1268.21 -34.7887L1268.22 -27.6101C1259.03 -27.6067 1249.86 -26.3938 1240.96 -24.004Z" fill="#4042EE"/>
<path d="M1268.49 181.94L1268.28 181.939C1259.16 181.939 1250.06 180.763 1241.28 178.444L1243.74 169.193C1251.72 171.299 1259.99 172.368 1268.33 172.368L1268.49 181.94ZM1295.71 178.356L1293.21 169.113C1301.26 166.96 1309 163.752 1316.23 159.577L1321.06 167.855C1313.1 172.451 1304.57 175.985 1295.71 178.356ZM1215.89 168.023C1207.94 163.465 1200.61 157.879 1194.09 151.419L1200.88 144.637C1206.8 150.509 1213.47 155.587 1220.69 159.729L1215.89 168.023ZM1342.8 151.185L1335.99 144.427C1341.89 138.536 1347 131.905 1351.16 124.72L1359.49 129.503C1354.91 137.411 1349.29 144.705 1342.8 151.185ZM1177.33 129.791C1172.71 121.875 1169.15 113.389 1166.76 104.571L1176.05 102.08C1178.22 110.087 1181.45 117.792 1185.64 124.981L1177.33 129.791ZM1369.97 104.243L1360.68 101.782C1362.81 93.8283 1363.89 85.5812 1363.89 77.2699L1371.47 77.1846L1373.51 77.2012C1373.51 86.4115 1372.32 95.486 1369.97 104.243ZM1172.77 77.4847H1163.15V77.2699C1163.15 68.0887 1164.34 58.9768 1166.7 50.1874L1176 52.658C1173.85 60.6418 1172.77 68.9223 1172.77 77.2699V77.4847ZM1360.63 52.5576C1358.47 44.5476 1355.25 36.8388 1351.07 29.6458L1359.39 24.8451C1364 32.7658 1367.55 41.2551 1369.92 50.0768L1360.63 52.5576ZM1185.54 29.7311L1177.22 24.9394C1181.81 17.0359 1187.44 9.74684 1193.94 3.27337L1200.74 10.0403C1194.83 15.924 1189.72 22.5491 1185.54 29.7311ZM1335.85 9.97444C1329.93 4.09591 1323.27 -0.988762 1316.05 -5.13823L1320.86 -13.4261C1328.81 -8.85983 1336.13 -3.26583 1342.64 3.20097L1335.85 9.97444ZM1220.51 -5.08863L1215.7 -13.372C1223.66 -17.959 1232.19 -21.483 1241.06 -23.8454L1243.54 -14.6001C1235.49 -12.4548 1227.74 -9.25476 1220.51 -5.08863ZM1293.01 -14.6274C1285 -16.7516 1276.7 -17.8284 1268.33 -17.8284L1268.27 -27.3995H1268.33C1277.53 -27.3995 1286.67 -26.2139 1295.49 -23.8761L1293.01 -14.6274Z" fill="#4042EE"/>
<path d="M1268.49 172.511L1268.47 160.547C1275.77 160.539 1283.05 159.571 1290.11 157.668L1293.25 169.217C1285.17 171.395 1276.84 172.503 1268.49 172.511ZM1243.76 169.297L1243.57 169.247C1235.55 167.115 1227.81 163.944 1220.63 159.839L1226.61 149.463C1232.89 153.051 1239.66 155.823 1246.73 157.704L1243.76 169.297ZM1316.3 159.659L1310.27 149.305C1316.6 145.655 1322.43 141.196 1327.59 136.056L1336.09 144.512C1330.2 150.388 1323.54 155.484 1316.3 159.659ZM1200.78 144.732C1194.87 138.864 1189.75 132.237 1185.55 125.036L1195.95 119.035C1199.63 125.335 1204.11 131.132 1209.27 136.265L1200.78 144.732ZM1351.28 124.768L1340.85 118.808C1344.45 112.58 1347.24 105.871 1349.12 98.864L1349.19 98.6442L1360.77 101.847L1355.17 100.299L1360.83 101.638L1360.77 101.85C1358.61 109.897 1355.41 117.608 1351.28 124.768ZM1175.94 102.105C1173.75 94.0644 1172.63 85.7732 1172.62 77.462L1184.64 77.4452C1184.65 84.7048 1185.63 91.9482 1187.54 98.9744L1175.94 102.105ZM1352.01 77.1512C1352 69.8906 1351.04 62.646 1349.13 55.6198L1360.73 52.4975C1362.92 60.5387 1364.03 68.8304 1364.04 77.1423L1352.01 77.1512ZM1187.5 55.7766L1175.85 52.8262L1175.9 52.6308C1178.05 44.6191 1181.25 36.8898 1185.4 29.7128L1195.82 35.6796C1192.2 41.9532 1189.4 48.7151 1187.5 55.7766ZM1340.73 35.5535C1337.07 29.2492 1332.59 23.4487 1327.42 18.3138L1335.92 9.8519C1341.83 15.7227 1346.95 22.3528 1351.13 29.5588L1340.73 35.5535ZM1209.11 18.4399L1200.61 9.9791C1206.51 4.10656 1213.17 -0.984638 1220.41 -5.15317L1226.43 5.20243C1220.1 8.8503 1214.27 13.304 1209.11 18.4399ZM1310.09 5.10309C1303.8 1.50096 1297.01 -1.28144 1289.92 -3.16624L1291.45 -8.95397L1293.05 -14.7176L1293.09 -14.7093C1301.13 -12.5712 1308.88 -9.39037 1316.09 -5.2693L1310.09 5.10309ZM1246.6 -3.14677L1243.47 -14.6976C1251.55 -16.8685 1259.88 -17.9705 1268.23 -17.9744L1268.24 -6.00957C1260.94 -6.00677 1253.66 -5.0433 1246.6 -3.14677Z" fill="#4042EE"/>
<path d="M1268.49 160.912H1268.33C1261.02 160.912 1253.76 159.975 1246.75 158.129L1250.45 144.251C1256.25 145.779 1262.26 146.555 1268.33 146.555H1268.49V160.912ZM1290.24 158.037L1286.49 144.175C1292.35 142.603 1297.99 140.264 1303.25 137.223L1310.5 149.636C1304.14 153.312 1297.33 156.139 1290.24 158.037ZM1226.46 149.812C1220.11 146.173 1214.24 141.713 1209.04 136.556L1219.21 126.38C1223.53 130.656 1228.39 134.353 1233.65 137.368L1226.46 149.812ZM1327.86 136.312L1317.64 126.177C1321.94 121.884 1325.66 117.052 1328.69 111.813L1341.19 118.984C1337.53 125.304 1333.05 131.135 1327.86 136.312ZM1195.63 119.287C1191.94 112.963 1189.09 106.184 1187.18 99.1364L1201.11 95.3903C1202.69 101.221 1205.04 106.832 1208.11 112.065L1195.63 119.287ZM1349.56 98.7911L1335.63 95.1063C1337.16 89.3192 1337.95 83.3184 1337.95 77.2696L1352.37 77.1608V77.2696C1352.37 84.5615 1351.43 91.8022 1349.56 98.7911ZM1198.7 77.4856H1184.28V77.3254C1184.27 69.9359 1185.23 62.6563 1187.12 55.6327L1201.05 59.3375C1199.49 65.1531 1198.7 71.1863 1198.7 77.2696V77.4856ZM1335.57 59.2404C1334 53.4092 1331.65 47.7962 1328.59 42.5582L1341.08 35.3528C1344.76 41.6828 1347.6 48.467 1349.51 55.5167L1335.57 59.2404ZM1208.01 42.6402L1195.52 35.4538C1199.19 29.1388 1203.68 23.3148 1208.87 18.1432L1219.08 28.2924C1214.77 32.5803 1211.05 37.4071 1208.01 42.6402ZM1317.51 28.2271C1313.19 23.9448 1308.34 20.2411 1303.08 17.2187L1310.29 4.78523C1316.64 8.43203 1322.5 12.9002 1327.7 18.0646L1317.51 28.2271ZM1233.49 17.2667L1226.26 4.84323C1232.62 1.1763 1239.44 -1.64077 1246.52 -3.5305L1250.26 10.3379C1244.39 11.9008 1238.75 14.2319 1233.49 17.2667ZM1286.3 10.3123C1280.47 8.76736 1274.42 7.98389 1268.33 7.98389L1268.27 -6.37331H1268.33C1275.67 -6.37331 1282.97 -5.42704 1290.01 -3.56064L1286.3 10.3123Z" fill="#4042EE"/>
<path d="M1268.54 146.397L1268.5 131.012C1273.21 131 1277.9 130.369 1282.45 129.137L1286.51 143.984C1280.65 145.571 1274.6 146.383 1268.54 146.397ZM1250.61 144.096L1250.38 144.036C1244.57 142.491 1238.99 140.208 1233.8 137.255L1241.48 123.899C1245.51 126.193 1249.85 127.969 1254.39 129.176L1250.61 144.096ZM1303.22 137.028L1295.45 123.724C1299.54 121.363 1303.29 118.483 1306.62 115.163L1317.57 126.023C1313.29 130.292 1308.47 133.995 1303.22 137.028ZM1219.38 126.313C1215.09 122.064 1211.36 117.263 1208.31 112.041L1221.67 104.301C1224.05 108.364 1226.94 112.1 1230.28 115.405L1219.38 126.313ZM1328.58 111.68L1315.16 104.029C1317.48 100.005 1319.27 95.6687 1320.49 91.1392L1320.52 91.0127L1335.44 95.0606C1333.87 100.926 1331.56 106.501 1328.58 111.68ZM1201.3 95.4176C1199.7 89.5859 1198.88 83.57 1198.86 77.5375L1214.32 77.4851C1214.34 82.1674 1214.98 86.8375 1216.22 91.3659L1201.3 95.4176ZM1322.33 77.1442C1322.33 72.4618 1321.69 67.7906 1320.46 63.2606L1335.39 59.2332C1336.97 65.0672 1337.79 71.0847 1337.8 77.1184L1322.33 77.1442ZM1216.12 63.5663L1201.17 59.6572L1201.24 59.4007C1202.8 53.5744 1205.13 47.9659 1208.14 42.7591L1221.54 50.4332C1219.2 54.4783 1217.39 58.841 1216.17 63.4L1216.12 63.5663ZM1315.03 50.316C1312.66 46.2486 1309.77 42.5075 1306.44 39.1966L1317.36 28.3075C1321.65 32.5642 1325.36 37.372 1328.41 42.5972L1315.03 50.316ZM1230.1 39.3131L1219.17 28.4342C1223.45 24.1719 1228.28 20.4772 1233.54 17.4531L1241.28 30.7703C1237.19 33.1238 1233.43 35.9983 1230.1 39.3131ZM1295.26 30.6839C1291.24 28.3868 1286.91 26.6068 1282.38 25.3934L1282.15 25.3331L1284.24 17.8023L1286.02 10.4384L1286.26 10.4982C1292.12 12.0571 1297.74 14.3598 1302.96 17.342L1295.26 30.6839ZM1254.29 25.3783L1250.26 10.5255C1256.13 8.94764 1262.17 8.14524 1268.23 8.14084L1268.25 23.527C1263.54 23.5303 1258.85 24.153 1254.29 25.3783Z" fill="#4042EE"/>
</g>
</g>
<path d="M1468.51 -217.204C1563.21 -151.208 1639.63 -78.3028 1686.63 -13.8187C1710.13 18.4288 1726.23 48.5085 1733.61 74.5172C1741 100.539 1739.61 122.276 1728.48 138.099C1717.35 153.921 1697.31 162.653 1670.2 164.644C1643.12 166.635 1609.21 161.865 1570.72 150.916C1493.75 129.021 1398.77 82.4973 1304.06 16.5024C1209.35 -49.4927 1132.94 -122.398 1085.94 -186.883C1062.43 -219.131 1046.33 -249.209 1038.95 -275.219C1031.56 -301.24 1032.95 -322.977 1044.08 -338.8C1055.21 -354.623 1075.27 -363.355 1102.36 -365.345C1129.45 -367.336 1163.36 -362.567 1201.85 -351.617C1278.81 -329.723 1373.79 -283.199 1468.51 -217.204Z" stroke="#87A0AF" stroke-width="2.66667" stroke-miterlimit="10"/>
</g>
</g>
</g>
</g>
<defs>
<clipPath id="clip0_10_13">
<rect width="1920" height="211" fill="white"/>
</clipPath>
<clipPath id="clip1_10_13">
<rect width="1920" height="211" fill="white"/>
</clipPath>
<clipPath id="clip2_10_13">
<rect width="1920" height="273.333" fill="white" transform="translate(0 -31.1667)"/>
</clipPath>
</defs>
</svg>
